<?xml version="1.0" encoding="UTF-8"?>
<svg version="1.1" xmlns="http://www.w3.org/2000/svg" width="420" height="420">
<path d="M0 0 C138.6 0 277.2 0 420 0 C420 138.6 420 277.2 420 420 C281.4 420 142.8 420 0 420 C0 281.4 0 142.8 0 0 Z " fill="#F0F0F0" transform="translate(0,0)"/>
<path d="M0 0 C69.63 0 139.26 0 211 0 C211 23.1 211 46.2 211 70 C234.1 70 257.2 70 281 70 C281 93.43 281 116.86 281 141 C257.9 141 234.8 141 211 141 C211 163.77 211 186.54 211 210 C234.1 210 257.2 210 281 210 C281 233.43 281 256.86 281 281 C234.8 281 188.6 281 141 281 C141 304.1 141 327.2 141 351 C117.57 351 94.14 351 70 351 C70 327.9 70 304.8 70 281 C23.8 281 -22.4 281 -70 281 C-70 257.57 -70 234.14 -70 210 C-46.9 210 -23.8 210 0 210 C0 187.23 0 164.46 0 141 C-23.1 141 -46.2 141 -70 141 C-70 117.57 -70 94.14 -70 70 C-46.9 70 -23.8 70 0 70 C0 46.9 0 23.8 0 0 Z " fill="#96DED1" transform="translate(105,35)"/>
<path d="M0 0 C22.77 0 45.54 0 69 0 C69 22.77 69 45.54 69 69 C46.23 69 23.46 69 0 69 C0 46.23 0 23.46 0 0 Z " fill="#F0F0F0" transform="translate(176,246)"/>
<path d="M0 0 C22.77 0 45.54 0 69 0 C69 22.77 69 45.54 69 69 C46.23 69 23.46 69 0 69 C0 46.23 0 23.46 0 0 Z " fill="#F0F0F0" transform="translate(246,106)"/>
<path d="M0 0 C22.77 0 45.54 0 69 0 C69 22.77 69 45.54 69 69 C46.23 69 23.46 69 0 69 C0 46.23 0 23.46 0 0 Z " fill="#F0F0F0" transform="translate(106,106)"/>
</svg>
